<?xml version="1.0" encoding="UTF-8"?>
<svg version="1.1" xmlns="http://www.w3.org/2000/svg" width="1366" height="768">
<path d="M0 0 C450.78 0 901.56 0 1366 0 C1366 253.44 1366 506.88 1366 768 C915.22 768 464.44 768 0 768 C0 514.56 0 261.12 0 0 Z " fill="#000000" transform="translate(0,0)"/>
<path d="M0 0 C1.2684375 0.12375 1.2684375 0.12375 2.5625 0.25 C4.62982216 3.35098324 4.81917665 4.06787611 4.87220764 7.59013367 C4.8903376 8.47973408 4.90846756 9.36933449 4.92714691 10.28589249 C4.93708931 11.26235607 4.94703171 12.23881966 4.95727539 13.24487305 C4.97549095 14.2792387 4.99370651 15.31360435 5.01247406 16.37931442 C5.07102175 19.8400347 5.11559607 23.30079223 5.16015625 26.76171875 C5.19855827 29.20542173 5.23779484 31.64911171 5.27781677 34.0927887 C5.37218711 39.99107055 5.45752054 45.88944227 5.53875726 51.78791577 C5.63368597 58.6451002 5.74009544 65.50209315 5.84681153 72.35910249 C6.34248115 104.29189466 6.7623813 136.22578868 7.11401367 168.16049194 C7.33037429 187.73975367 7.64696545 207.31460221 8.06640625 226.890625 C8.08911465 227.95988472 8.11182304 229.02914444 8.13521957 230.13080597 C8.35809058 240.6236462 8.58487939 251.11633881 8.83426094 261.60858536 C9.64750539 296.15799843 9.66614659 330.69336661 9.5625 365.25 C38.18129074 365.14216141 66.80005799 365.02930043 95.41880608 364.91066074 C108.71067419 364.85567273 122.00254386 364.80225236 135.29443359 364.75268555 C146.89634002 364.7094167 158.49822943 364.66304047 170.10010922 364.61312145 C176.22799742 364.58685871 182.35588301 364.5620235 188.48379135 364.54092598 C213.69720638 364.45312691 238.88125068 364.26052545 264.08019066 363.36426449 C274.48766693 363.02276555 284.90118304 362.86594575 295.3125 362.6875 C296.51380554 362.66632111 297.71511108 362.64514221 298.95281982 362.62332153 C325.82261214 362.15859311 352.68959846 362.1410498 379.5625 362.25 C379.6875 364.625 379.6875 364.625 379.5625 367.25 C376.53157339 370.28092661 372.98484253 369.7042197 368.90405273 369.84375 C368.01352172 369.88077026 367.1229907 369.91779053 366.2054739 369.95593262 C355.50690621 370.37606701 344.80238499 370.5679305 334.09765625 370.75 C331.85193991 370.79047076 329.60622772 370.8311721 327.36051941 370.87208557 C321.36412768 370.98026003 315.36766729 371.08394326 309.37117004 371.18608475 C305.58032106 371.25076229 301.78948793 371.31630988 297.99865723 371.38204956 C253.47579894 372.1522959 208.95457328 372.82720373 164.42671967 373.21598816 C160.93470387 373.24672396 157.4426935 373.27799305 153.95068467 373.30950576 C133.86563776 373.49071733 113.78053657 373.66086354 93.69524193 373.81235027 C91.88020192 373.82605415 90.06516196 373.83976576 88.25012207 373.85348511 C87.35243721 373.86026734 86.45475234 373.86704957 85.52986491 373.87403733 C79.19317225 373.92239295 72.85653269 373.9757054 66.51989746 374.03103638 C58.74632562 374.09879443 50.97273715 374.15930187 43.1990394 374.2107172 C39.15842831 374.23763097 35.11791082 374.26791877 31.07739449 374.30667496 C27.32992048 374.3424984 23.58250082 374.36901274 19.83490515 374.38807189 C17.81204418 374.40080174 15.78925384 374.42351966 13.76648331 374.44649601 C12.5741647 374.45071284 11.38184608 374.45492968 10.15339661 374.45927429 C9.11524213 374.4671934 8.07708765 374.47511251 7.00747395 374.4832716 C4.5625 374.25 4.5625 374.25 2.5625 372.25 C2.31986337 369.27713044 2.20168941 366.39189079 2.16772461 363.41455078 C2.14953171 362.49672821 2.13133881 361.57890564 2.1125946 360.63327026 C2.05415389 357.57070941 2.00958882 354.50810165 1.96484375 351.4453125 C1.92616005 349.29237251 1.88655818 347.13944884 1.84608459 344.98654175 C1.74098075 339.27610438 1.64733075 333.56553587 1.55633545 327.8548584 C1.44641323 321.06492855 1.32470595 314.27520353 1.20324802 307.48547173 C1.10810801 302.16502032 1.01493275 296.84457198 0.9294281 291.5239563 C0.77952651 282.47254961 0.6060605 273.42302967 0.33732605 264.37426758 C0.3167922 263.68281635 0.29625835 262.99136512 0.27510226 262.27896082 C0.25408902 261.57223557 0.23307578 260.86551032 0.21142578 260.13736916 C-0.47526623 237.02239731 -0.82504809 213.90574316 -1.14468122 190.78313732 C-1.22450331 185.04096958 -1.30690077 179.29883864 -1.38890076 173.55670166 C-1.52585886 163.9390289 -1.6608905 154.32133064 -1.79467773 144.70361328 C-1.94840609 133.65384298 -2.10509246 122.60411764 -2.26337105 111.55441165 C-2.41715047 100.81485371 -2.56897805 90.07526903 -2.7198925 79.33567047 C-2.78348898 74.81160881 -2.84771522 70.28755678 -2.91247749 65.76351166 C-3.48813223 25.4499995 -3.48813223 25.4499995 -3.53881836 10.36035156 C-3.54486115 9.40400692 -3.55090395 8.44766228 -3.55712986 7.46233749 C-3.5567412 0.36479397 -3.5567412 0.36479397 0 0 Z " fill="#35AFF5" transform="translate(99.4375,288.75)"/>
<path d="M0 0 C4.70588235 0.70588235 4.70588235 0.70588235 6 2 C6.14400542 3.98372727 6.21765726 5.97256281 6.26538086 7.9609375 C6.31576004 9.92640533 6.31576004 9.92640533 6.36715698 11.93157959 C6.39990608 13.41271561 6.43246065 14.89385594 6.46484375 16.375 C6.50247555 17.94745598 6.54041807 19.51990454 6.5786438 21.09234619 C6.68322654 25.46679034 6.78053806 29.84137089 6.87617874 34.21601868 C6.93755298 37.0024051 7.00084062 39.78874198 7.06466675 42.57507324 C8.01632238 84.28141084 8.64118494 125.99381372 9.24343872 167.70640945 C9.32122867 173.09349905 9.40049561 178.48056691 9.47957993 183.86763763 C9.53224208 187.5020093 9.58265696 191.13640645 9.63284302 194.77081299 C9.78309133 205.25364526 9.95850949 215.73438784 10.23190308 226.21472168 C10.96631269 254.48229453 11.29791756 282.74561568 11.53222656 311.02148438 C11.58361227 317.13804142 11.63866967 323.25456551 11.69335938 329.37109375 C11.79903693 341.24736732 11.90085542 353.12367022 12 365 C46.52088933 364.8895347 81.04171205 364.76356781 115.5625 364.625 C116.83324843 364.61992007 118.10399687 364.61484014 119.41325283 364.60960627 C191.26632269 364.32150019 263.09767774 363.86512669 334.93616295 362.34087372 C350.29336235 362.01546512 365.63917469 361.87433247 381 362 C382.30736535 366.39750162 382.30736535 366.39750162 381.09054565 368.78271484 C377.76505365 370.71908588 374.29827405 370.46199952 370.55126953 370.4765625 C369.66395519 370.49177948 368.77664085 370.50699646 367.8624382 370.52267456 C364.82759249 370.57096224 361.7929156 370.59778322 358.7578125 370.625 C356.53799715 370.65565303 354.31819932 370.68759748 352.09841919 370.72070312 C346.46420743 370.80126707 340.82993714 370.86755597 335.19548953 370.92918015 C327.99856509 371.00905125 320.8019566 371.1097931 313.60529459 371.21019804 C292.36224265 371.50545286 271.11869425 371.75608382 249.875 372 C248.96132109 372.01051124 248.04764218 372.02102248 247.10627604 372.03185225 C218.36442973 372.36233212 189.62238886 372.67262833 160.88018322 372.97011471 C158.00773898 372.9999197 155.13529694 373.02992835 152.26285553 373.06000519 C130.39395917 373.2888758 108.52503642 373.50619169 86.65566635 373.68493843 C84.95153546 373.6988839 83.24740465 373.71283992 81.54327393 373.72680664 C80.70612374 373.73366356 79.86897356 373.74052047 79.00645518 373.74758518 C73.12131952 373.79654579 67.23628932 373.8532762 61.35125732 373.91333008 C54.23409212 373.98584696 47.11693404 374.04801717 39.99956053 374.09617823 C36.38502149 374.1208952 32.77069127 374.15042408 29.15631294 374.19285011 C25.25977549 374.23840357 21.36331122 374.26074597 17.46655273 374.28051758 C16.32068129 374.29751709 15.17480984 374.3145166 13.99421501 374.33203125 C12.44294505 374.33412346 12.44294505 374.33412346 10.8603363 374.33625793 C9.51489825 374.34757106 9.51489825 374.34757106 8.14227962 374.35911274 C7.08185121 374.18135193 7.08185121 374.18135193 6 374 C3.85413113 370.78119669 3.74129255 369.89271675 3.69702148 366.18080139 C3.68033889 365.18342988 3.66365629 364.18605837 3.64646816 363.15846348 C3.63390783 361.51200037 3.63390783 361.51200037 3.62109375 359.83227539 C3.60446465 358.66976981 3.58783556 357.50726423 3.57070255 356.30953121 C3.52646053 353.08603426 3.49096872 349.86257497 3.45902753 346.638937 C3.42260691 343.1854657 3.37470286 339.73215325 3.32798767 336.27880859 C3.24889144 330.3255936 3.17649184 324.37232885 3.10861206 318.41897583 C3.00130411 309.02519149 2.88020769 299.63161279 2.75610352 290.23803711 C2.73518723 288.65147436 2.71427411 287.06491157 2.69336414 285.47834873 C2.66184755 283.08742061 2.63031517 280.6964927 2.59871727 278.30556566 C2.53495721 273.47505983 2.47225463 268.64454162 2.4103902 263.81401116 C2.02561585 233.77968882 1.53585754 203.74798379 1.00218964 173.71592712 C0.91603774 168.85039233 0.83125716 163.98483409 0.74654007 159.11927414 C0.40775612 139.66246496 0.06493237 120.20575696 -0.30847359 100.74957848 C-0.78635802 75.79037003 -1.09500014 50.83858498 -1.125 25.875 C-1.12767883 24.60999664 -1.13035767 23.34499329 -1.13311768 22.04165649 C-1.13885657 18.52513573 -1.13732072 15.00870831 -1.1328125 11.4921875 C-1.13478638 10.43830338 -1.13676025 9.38441925 -1.13879395 8.29859924 C-1.13569214 7.34525192 -1.13259033 6.3919046 -1.12939453 5.40966797 C-1.12859894 4.57724579 -1.12780334 3.74482361 -1.12698364 2.88717651 C-1 1 -1 1 0 0 Z " fill="#0047A6" transform="translate(23,368)"/>
<path d="M0 0 C4.55555556 0.55555556 4.55555556 0.55555556 6 2 C6.14978547 4.20744171 6.22836776 6.41970616 6.28125 8.6315918 C6.30832031 9.69335475 6.30832031 9.69335475 6.3359375 10.77656746 C6.39574477 13.18819067 6.44801148 15.59991505 6.5 18.01171875 C6.54081521 19.75510623 6.58183677 21.49848888 6.62304688 23.24186707 C7.16694228 46.80771236 7.5477161 70.37727681 7.93608475 93.94608307 C8.00080877 97.8614248 8.06632396 101.7767526 8.13204956 105.69207764 C8.5735576 132.02977622 9.00180248 158.36747062 9.31640625 184.70703125 C9.32761883 185.64434145 9.33883141 186.58165165 9.35038376 187.54736519 C9.45239633 196.13626346 9.54949612 204.72519372 9.63499737 213.31427288 C9.80922521 230.71627112 10.12767694 248.10571931 10.62585449 265.50158691 C11.01098706 278.98074829 11.28539037 292.45983927 11.50268555 305.94287109 C11.56313023 309.66379626 11.6281027 313.38462518 11.69335938 317.10546875 C11.73464337 319.58332888 11.77566823 322.06119334 11.81640625 324.5390625 C11.83514297 325.59606354 11.8538797 326.65306458 11.8731842 327.74209595 C12.07150145 340.49374614 12.01652043 353.24718961 12 366 C37.06260211 365.91791144 62.12506929 365.81115272 87.1875 365.6875 C88.13515999 365.68285437 89.08281999 365.67820874 90.05919695 365.67342234 C157.58995748 365.34079918 225.09700033 364.43193692 292.6144855 363.06806779 C295.16040322 363.01672173 297.7063269 362.96568188 300.25225258 362.91473198 C301.91027478 362.88150267 303.56829671 362.84825964 305.22631836 362.81500244 C306.03406531 362.79880753 306.84181226 362.78261262 307.67403638 362.76592696 C312.26305097 362.67347598 316.85196782 362.57732721 321.44083917 362.47803557 C335.55599539 362.17388362 349.6724729 361.92208345 363.79092848 361.84910786 C365.21953995 361.8405566 366.64813586 361.82871094 368.07669103 361.81341445 C370.04175978 361.79345321 372.00695826 361.78778613 373.97212219 361.78285217 C375.09091924 361.77633164 376.20971628 361.76981112 377.36241627 361.76309299 C380 362 380 362 382 364 C381.46428571 367.53571429 381.46428571 367.53571429 380 369 C377.39125683 369.21367673 374.80553926 369.35985822 372.19140625 369.46484375 C371.36467187 369.4996305 370.53793749 369.53441725 369.68615055 369.57025814 C341.62358564 370.72380478 313.55198498 371.43836918 285.47265625 372.02734375 C284.43878233 372.04914184 283.40490842 372.07093993 282.33970499 372.09339857 C229.32509106 373.20390036 176.30958742 373.43010323 123.28500336 373.58943635 C110.33033106 373.62870257 97.37570041 373.67782536 84.42106414 373.72740483 C57.94740745 373.8285218 31.47372371 373.91843702 5 374 C3.84279538 370.52838613 3.83002426 367.75516069 3.77258301 364.09077454 C3.76018349 363.38295544 3.74778398 362.67513635 3.73500872 361.94586819 C3.69447312 359.56593251 3.66074259 357.18594853 3.62695312 354.8059082 C3.599283 353.10011128 3.5711913 351.39432116 3.54270935 349.6885376 C3.46617966 345.03487398 3.3955014 340.3811371 3.32575035 335.72736764 C3.25102462 330.81299496 3.17070854 325.89871377 3.09094238 320.98442078 C2.93971188 311.61757086 2.79313469 302.25065439 2.64837503 292.88370246 C2.39214932 276.31630685 2.12723003 259.74904769 1.86249971 243.18178612 C1.78256792 238.17940252 1.70286346 233.17701554 1.623703 228.17461967 C1.24747947 204.4108009 0.83921033 180.64879711 0.31542969 156.88769531 C-0.02687832 141.30858304 -0.25257311 125.72908375 -0.4458313 110.14749146 C-0.69478892 90.11577808 -0.94516671 70.08691494 -1.5625 50.0625 C-1.88678995 39.37031133 -2.12586159 28.68129739 -2.17623901 17.98410034 C-2.18364727 16.55547041 -2.19423979 15.12685283 -2.20828247 13.69827271 C-2.22588399 11.76375816 -2.22858843 9.82912496 -2.23046875 7.89453125 C-2.23457764 6.79987549 -2.23868652 5.70521973 -2.24291992 4.57739258 C-2 2 -2 2 0 0 Z " fill="#4F6DF6" transform="translate(57,329)"/>
<path d="M0 0 C76.56 0 153.12 0 232 0 C232 76.56 232 153.12 232 232 C229.03 232 226.06 232 223 232 C223 158.41 223 84.82 223 9 C149.41 9 75.82 9 0 9 C0 6.03 0 3.06 0 0 Z " fill="#12C7E0" transform="translate(1095,28)"/>
</svg>
