<?xml version="1.0" encoding="UTF-8"?>
<svg version="1.1" xmlns="http://www.w3.org/2000/svg" width="1366" height="768">
<path d="M0 0 C450.78 0 901.56 0 1366 0 C1366 253.44 1366 506.88 1366 768 C915.22 768 464.44 768 0 768 C0 514.56 0 261.12 0 0 Z " fill="#FEFEFE" transform="translate(0,0)"/>
<path d="M0 0 C1.04229767 -0.00040283 2.08459534 -0.00080566 3.15847778 -0.0012207 C39.64122436 0.07996482 70.87983463 10.22116731 103.3125 26.4375 C103.3125 115.8675 103.3125 205.2975 103.3125 297.4375 C-32.3175 297.4375 -167.9475 297.4375 -307.6875 297.4375 C-307.6875 261.11106988 -298.7018799 232.25299125 -273.5625 205.9375 C-254.27584594 187.12771376 -229.45110309 176.00751487 -202.6875 173.4375 C-202.4915625 172.2 -202.295625 170.9625 -202.09375 169.6875 C-197.28140287 141.09320482 -186.63001791 113.11358272 -169.6875 89.4375 C-168.98367188 88.44363281 -168.27984375 87.44976563 -167.5546875 86.42578125 C-154.52553287 68.56323055 -139.56421645 52.48844729 -121.6875 39.4375 C-120.87418213 38.83373535 -120.87418213 38.83373535 -120.04443359 38.21777344 C-84.9174207 12.42351539 -43.21054023 -0.0170872 0 0 Z " fill="#38B6FE" transform="translate(1262.6875,470.5625)"/>
<path d="M0 0 C18.03637849 16.37786093 31.25059267 35.77753846 37.71875 59.46875 C38.03714844 60.61085938 38.35554688 61.75296875 38.68359375 62.9296875 C41.54228429 74.86504985 40.71875 84.49596109 40.71875 97.46875 C-35.18125 97.46875 -111.08125 97.46875 -189.28125 97.46875 C-189.28125 61.14231988 -180.2956299 32.28424125 -155.15625 5.96875 C-113.64260689 -34.51845688 -44.48223723 -38.20239197 0 0 Z " fill="#004AAD" transform="translate(1144.28125,670.53125)"/>
</svg>
