<?xml version="1.0" encoding="utf-8"?>
<svg xmlns="http://www.w3.org/2000/svg" height="512pt" version="1.1" viewBox="0 0 512 512" width="512pt">
<path d="M 0.00 0.00 L 512.00 0.00 L 512.00 512.00 L 0.00 512.00 L 0.00 0.00 Z" fill="transparent" opacity="1.00" stroke="transparent" stroke-width="0.25"/>
<path d="M 228.31 112.20 C 229.90 110.33 232.70 111.36 234.02 113.03 C 237.30 116.57 241.24 119.41 244.53 122.94 C 242.49 125.14 239.95 126.78 237.86 128.90 C 236.04 131.35 234.22 133.81 231.94 135.86 C 228.10 132.79 225.62 128.32 221.45 125.62 C 220.51 124.69 217.87 123.68 219.22 122.05 C 222.44 118.94 225.29 115.49 228.31 112.20 Z" fill="#fb915d" opacity="1.00" stroke="#fb915d" stroke-width="0.25"/>
<path d="M 222.70 122.05 C 225.94 120.14 228.47 117.36 230.88 114.51 C 233.86 117.31 236.95 119.99 240.31 122.33 C 239.36 123.58 238.11 124.55 236.92 125.55 C 234.96 123.95 233.07 122.23 230.88 120.95 C 229.50 120.91 228.66 122.24 227.58 122.87 C 228.93 123.98 230.29 125.08 231.74 126.05 C 232.78 126.75 233.87 127.38 234.88 128.13 C 234.42 129.69 232.87 130.59 231.88 131.79 C 228.78 128.59 225.37 125.65 222.70 122.05 Z" fill="#fbfdfd" opacity="1.00" stroke="#fbfdfd" stroke-width="0.25"/>
<path d="M 227.58 122.87 C 228.66 122.24 229.50 120.91 230.88 120.95 C 233.07 122.23 234.96 123.95 236.92 125.55 C 235.39 126.69 233.56 125.30 231.97 125.02 L 231.74 126.05 C 230.29 125.08 228.93 123.98 227.58 122.87 Z" fill="#f2b294" opacity="1.00" stroke="#f2b294" stroke-width="0.25"/>
<path d="M 183.62 137.85 C 184.95 137.52 186.30 137.36 187.68 137.38 C 187.08 138.58 186.49 139.78 185.89 140.98 C 190.60 143.99 196.00 139.78 201.04 141.11 C 203.08 141.45 204.86 142.59 206.18 144.16 L 204.26 144.47 C 204.28 144.73 204.33 145.26 204.36 145.52 C 206.57 145.23 208.76 144.91 210.96 144.57 C 212.09 147.55 213.66 150.32 215.07 153.16 C 215.36 155.82 213.85 158.46 213.29 161.08 C 212.07 165.79 207.37 168.08 203.71 170.68 C 201.98 169.25 200.30 167.75 198.64 166.23 C 198.33 166.78 197.70 167.87 197.39 168.41 C 196.81 166.87 196.25 165.34 195.70 163.79 C 197.23 160.94 197.26 156.63 194.43 154.59 C 192.14 153.76 189.63 154.17 187.25 154.19 C 187.08 154.72 186.75 155.78 186.58 156.31 C 182.25 156.54 184.40 161.40 184.71 164.03 L 186.31 163.49 C 186.32 163.84 186.34 164.54 186.35 164.89 C 186.34 165.14 186.32 165.65 186.31 165.91 C 185.66 165.22 184.99 164.54 184.32 163.88 C 183.81 162.00 183.33 160.10 183.38 158.14 C 184.20 156.57 185.40 155.25 186.47 153.85 C 181.12 151.58 179.98 145.04 181.98 140.08 C 181.85 142.38 181.67 144.71 182.07 146.99 C 182.52 148.95 184.49 149.90 185.88 151.12 C 186.16 148.50 186.70 145.86 186.38 143.23 C 185.85 141.26 184.57 139.61 183.62 137.85 Z" fill="#070183" opacity="1.00" stroke="#070183" stroke-width="0.25"/>
<path d="M 181.98 140.08 C 182.39 139.52 183.21 138.41 183.62 137.85 C 184.57 139.61 185.85 141.26 186.38 143.23 C 186.70 145.86 186.16 148.50 185.88 151.12 C 184.49 149.90 182.52 148.95 182.07 146.99 C 181.67 144.71 181.85 142.38 181.98 140.08 Z" fill="#080aa7" opacity="1.00" stroke="#080aa7" stroke-width="0.25"/>
<path d="M 210.96 144.57 C 220.90 138.85 233.71 143.93 240.66 152.06 C 239.30 151.53 237.93 151.03 236.56 150.53 C 234.66 153.16 232.05 155.09 229.03 156.25 C 225.01 153.23 219.92 152.83 215.07 153.16 C 213.66 150.32 212.09 147.55 210.96 144.57 Z" fill="#4e2acc" opacity="1.00" stroke="#4e2acc" stroke-width="0.25"/>
<path d="M 229.03 156.25 C 232.05 155.09 234.66 153.16 236.56 150.53 C 237.93 151.03 239.30 151.53 240.66 152.06 C 243.39 155.10 245.22 158.99 246.74 162.76 C 246.16 166.85 243.61 170.06 241.39 173.36 C 241.15 175.86 243.22 178.47 241.05 180.70 C 237.10 172.52 235.94 162.75 229.03 156.25 Z" fill="#652cd7" opacity="1.00" stroke="#652cd7" stroke-width="0.25"/>
<path d="M 187.25 154.19 C 189.63 154.17 192.14 153.76 194.43 154.59 C 197.26 156.63 197.23 160.94 195.70 163.79 C 194.81 164.91 193.87 166.01 192.95 167.10 C 190.63 166.77 188.24 166.40 186.35 164.89 C 186.34 164.54 186.32 163.84 186.31 163.49 L 184.71 164.03 C 184.40 161.40 182.25 156.54 186.58 156.31 C 186.75 155.78 187.08 154.72 187.25 154.19 Z" fill="#f95cb5" opacity="1.00" stroke="#f95cb5" stroke-width="0.25"/>
<path d="M 199.34 159.47 C 201.77 158.92 200.26 162.50 200.48 163.86 C 198.70 163.16 198.09 160.92 199.34 159.47 Z" fill="#f9fcfb" opacity="1.00" stroke="#f9fcfb" stroke-width="0.25"/>
<path d="M 288.12 166.71 C 296.27 162.38 306.10 160.51 315.19 162.52 C 313.23 162.73 311.28 163.00 309.34 163.26 C 310.84 166.41 311.76 169.81 311.88 173.31 C 306.05 172.94 300.18 173.37 294.69 175.50 C 294.31 174.22 293.94 172.95 293.56 171.69 C 292.02 171.03 290.49 170.37 288.97 169.70 C 289.87 169.28 290.78 168.85 291.69 168.43 C 290.49 167.85 289.30 167.28 288.12 166.71 Z" fill="#cf24b0" opacity="1.00" stroke="#cf24b0" stroke-width="0.25"/>
<path d="M 246.74 162.76 C 249.49 168.30 250.86 174.42 253.56 180.00 C 252.33 180.47 251.12 180.96 249.90 181.45 C 250.03 183.03 250.55 184.51 251.42 185.83 C 250.49 186.25 249.55 186.68 248.63 187.11 C 248.63 188.91 248.57 190.72 248.38 192.52 C 245.37 188.97 243.04 184.89 241.05 180.70 C 243.22 178.47 241.15 175.86 241.39 173.36 C 243.61 170.06 246.16 166.85 246.74 162.76 Z" fill="#752bd3" opacity="1.00" stroke="#752bd3" stroke-width="0.25"/>
<path d="M 309.34 163.26 C 311.28 163.00 313.23 162.73 315.19 162.52 C 322.24 163.06 328.96 165.92 334.99 169.51 C 333.27 170.24 331.23 170.52 329.83 171.84 C 329.26 173.02 328.89 174.29 328.46 175.52 C 327.13 176.04 325.80 176.55 324.48 177.07 C 320.41 175.42 316.31 173.62 311.88 173.31 C 311.76 169.81 310.84 166.41 309.34 163.26 Z" fill="#e22aa9" opacity="1.00" stroke="#e22aa9" stroke-width="0.25"/>
<path d="M 184.32 163.88 C 184.99 164.54 185.66 165.22 186.31 165.91 C 186.05 167.24 185.67 168.54 185.20 169.82 C 184.35 171.97 183.76 174.22 183.34 176.50 C 182.20 172.47 180.89 167.13 184.32 163.88 Z" fill="#4425c8" opacity="1.00" stroke="#4425c8" stroke-width="0.25"/>
<path d="M 192.95 167.10 C 193.87 166.01 194.81 164.91 195.70 163.79 C 196.25 165.34 196.81 166.87 197.39 168.41 C 196.01 171.35 194.86 174.39 193.62 177.38 C 190.16 177.78 186.69 177.37 183.34 176.50 C 183.76 174.22 184.35 171.97 185.20 169.82 C 188.15 170.11 191.36 170.02 192.95 167.10 Z" fill="#180a9f" opacity="1.00" stroke="#180a9f" stroke-width="0.25"/>
<path d="M 186.35 164.89 C 188.24 166.40 190.63 166.77 192.95 167.10 C 191.36 170.02 188.15 170.11 185.20 169.82 C 185.67 168.54 186.05 167.24 186.31 165.91 C 186.32 165.65 186.34 165.14 186.35 164.89 Z" fill="#e23ccd" opacity="1.00" stroke="#e23ccd" stroke-width="0.25"/>
<path d="M 271.51 173.02 C 272.12 168.40 276.96 164.29 281.71 165.34 C 282.93 166.18 283.75 167.47 284.67 168.61 C 285.74 167.93 286.81 167.26 287.88 166.59 L 288.12 166.71 C 289.30 167.28 290.49 167.85 291.69 168.43 C 290.78 168.85 289.87 169.28 288.97 169.70 C 290.49 170.37 292.02 171.03 293.56 171.69 C 293.94 172.95 294.31 174.22 294.69 175.50 L 294.74 175.66 C 290.22 177.54 286.24 180.42 281.87 182.57 C 276.73 183.22 270.72 178.58 271.51 173.02 Z" fill="#c227bd" opacity="1.00" stroke="#c227bd" stroke-width="0.25"/>
<path d="M 197.39 168.41 C 197.70 167.87 198.33 166.78 198.64 166.23 C 200.30 167.75 201.98 169.25 203.71 170.68 C 204.98 173.86 205.62 177.53 208.42 179.81 L 208.30 180.39 C 208.20 180.92 207.98 181.97 207.87 182.49 L 207.14 182.93 C 203.13 184.08 199.59 186.53 195.51 187.40 C 194.96 186.40 194.45 185.37 193.99 184.32 C 192.78 184.34 191.58 184.37 190.38 184.43 L 190.06 184.45 C 191.60 184.14 193.15 183.84 194.71 183.55 C 195.04 181.41 194.55 179.31 193.62 177.38 C 194.86 174.39 196.01 171.35 197.39 168.41 Z" fill="#f66e98" opacity="1.00" stroke="#f66e98" stroke-width="0.25"/>
<path d="M 329.83 171.84 C 331.23 170.52 333.27 170.24 334.99 169.51 C 343.26 174.83 350.33 182.12 355.20 190.67 C 354.67 190.97 353.60 191.56 353.07 191.85 C 349.23 189.68 347.43 185.57 344.65 182.39 C 342.92 180.57 340.51 181.96 338.58 182.56 C 338.34 183.80 337.91 184.98 337.16 186.01 C 333.29 182.54 329.04 179.54 324.48 177.07 C 325.80 176.55 327.13 176.04 328.46 175.52 C 328.89 174.29 329.26 173.02 329.83 171.84 Z" fill="#ea27a1" opacity="1.00" stroke="#ea27a1" stroke-width="0.25"/>
<path d="M 208.30 180.39 C 212.08 182.83 217.39 179.67 221.07 182.60 C 224.12 185.13 225.37 189.11 227.88 192.11 C 231.67 196.85 235.13 201.87 239.12 206.45 C 235.23 209.42 230.99 212.03 227.83 215.85 C 227.33 215.75 226.33 215.56 225.83 215.46 C 225.64 220.53 225.78 225.60 225.75 230.67 C 225.62 231.06 225.36 231.84 225.23 232.23 C 224.73 226.25 224.31 220.22 225.36 214.28 C 223.02 212.22 220.58 210.27 218.19 208.29 C 214.86 205.56 212.48 201.90 210.45 198.16 C 208.07 193.16 208.16 187.37 210.93 182.56 C 209.66 182.67 208.40 182.80 207.14 182.93 L 207.87 182.49 C 207.98 181.97 208.20 180.92 208.30 180.39 Z" fill="#0a2abc" opacity="1.00" stroke="#0a2abc" stroke-width="0.25"/>
<path d="M 253.56 180.00 C 255.07 182.73 256.79 185.34 258.72 187.80 C 256.43 190.93 254.19 194.09 252.07 197.34 C 250.82 195.86 249.57 194.39 248.35 192.89 L 248.38 192.52 C 248.57 190.72 248.63 188.91 248.63 187.11 C 249.55 186.68 250.49 186.25 251.42 185.83 C 250.55 184.51 250.03 183.03 249.90 181.45 C 251.12 180.96 252.33 180.47 253.56 180.00 Z" fill="#842ecb" opacity="1.00" stroke="#842ecb" stroke-width="0.25"/>
<path d="M 338.58 182.56 C 340.51 181.96 342.92 180.57 344.65 182.39 C 347.43 185.57 349.23 189.68 353.07 191.85 C 353.60 191.56 354.67 190.97 355.20 190.67 C 361.96 202.18 364.17 216.00 362.02 229.11 C 359.82 238.72 355.95 248.07 349.88 255.89 C 346.90 259.79 343.96 263.72 341.23 267.79 C 338.84 267.61 337.26 265.85 335.86 264.12 C 336.52 263.47 337.19 262.81 337.86 262.17 C 337.23 261.18 336.44 260.28 336.06 259.18 C 337.26 256.22 339.57 253.78 340.10 250.54 C 342.76 245.25 346.80 240.62 348.76 234.92 C 355.21 218.14 349.63 198.50 337.16 186.01 C 337.91 184.98 338.34 183.80 338.58 182.56 Z" fill="#e8258f" opacity="1.00" stroke="#e8258f" stroke-width="0.25"/>
<path d="M 195.51 187.40 C 199.59 186.53 203.13 184.08 207.14 182.93 C 208.40 182.80 209.66 182.67 210.93 182.56 C 208.16 187.37 208.07 193.16 210.45 198.16 C 205.08 198.50 200.07 200.49 195.22 202.67 C 193.34 201.78 191.45 199.80 189.21 200.50 C 187.93 201.52 187.48 203.28 186.64 204.65 C 186.05 204.04 185.46 203.44 184.87 202.84 C 185.89 198.26 186.29 193.55 187.47 189.01 C 187.97 187.26 188.60 185.28 190.38 184.43 C 191.58 184.37 192.78 184.34 193.99 184.32 C 194.45 185.37 194.96 186.40 195.51 187.40 Z" fill="#2970ec" opacity="1.00" stroke="#2970ec" stroke-width="0.25"/>
<path d="M 252.07 197.34 C 254.19 194.09 256.43 190.93 258.72 187.80 C 260.51 189.89 263.05 191.47 264.54 193.72 C 264.43 196.68 266.06 199.21 266.94 201.93 C 266.29 202.90 265.48 203.74 264.70 204.61 C 264.67 205.03 264.61 205.87 264.58 206.30 C 259.94 204.05 255.59 201.14 252.07 197.34 Z" fill="#aa2ac4" opacity="1.00" stroke="#aa2ac4" stroke-width="0.25"/>
<path d="M 294.41 193.88 C 300.95 188.72 310.34 187.73 317.87 191.19 C 323.35 193.65 327.65 198.11 330.96 203.04 C 335.83 210.07 336.49 219.31 334.67 227.45 C 331.25 235.57 325.68 242.57 320.76 249.81 C 320.65 248.12 320.42 246.45 320.24 244.78 C 319.16 245.86 318.08 246.94 317.00 248.02 C 317.42 246.12 317.86 244.22 318.34 242.33 C 318.81 242.73 319.75 243.53 320.23 243.92 C 320.09 242.72 319.89 241.53 319.63 240.35 C 318.58 239.86 317.49 239.49 316.42 239.05 C 316.20 238.72 315.75 238.07 315.52 237.74 C 318.44 232.51 322.96 227.98 324.24 221.97 C 324.52 216.95 323.07 211.84 320.46 207.56 C 317.07 201.87 309.48 199.13 303.25 201.40 C 299.41 200.11 296.84 196.93 294.41 193.88 Z" fill="#dd1ba0" opacity="1.00" stroke="#dd1ba0" stroke-width="0.25"/>
<path d="M 264.54 193.72 C 271.43 197.36 279.23 200.82 287.14 198.38 C 287.21 198.95 287.35 200.09 287.42 200.66 C 286.88 200.83 285.82 201.17 285.29 201.34 C 285.89 204.15 286.75 206.94 286.62 209.86 C 286.99 209.91 287.75 210.02 288.13 210.07 C 280.15 212.30 271.80 209.81 264.58 206.30 C 264.61 205.87 264.67 205.03 264.70 204.61 C 265.48 203.74 266.29 202.90 266.94 201.93 C 266.06 199.21 264.43 196.68 264.54 193.72 Z" fill="#bf25ba" opacity="1.00" stroke="#bf25ba" stroke-width="0.25"/>
<path d="M 287.14 198.38 C 289.56 196.86 292.18 195.68 294.41 193.88 C 296.84 196.93 299.41 200.11 303.25 201.40 C 298.51 204.69 294.02 209.07 288.13 210.07 C 287.75 210.02 286.99 209.91 286.62 209.86 C 286.75 206.94 285.89 204.15 285.29 201.34 C 285.82 201.17 286.88 200.83 287.42 200.66 C 287.35 200.09 287.21 198.95 287.14 198.38 Z" fill="#cf20af" opacity="1.00" stroke="#cf20af" stroke-width="0.25"/>
<path d="M 195.22 202.67 C 200.07 200.49 205.08 198.50 210.45 198.16 C 212.48 201.90 214.86 205.56 218.19 208.29 C 215.35 212.75 209.51 211.83 205.49 214.50 C 202.34 216.37 198.78 217.38 195.69 219.34 C 194.97 219.38 194.24 219.41 193.52 219.45 C 192.85 221.76 192.11 224.04 191.31 226.31 C 190.73 225.82 189.58 224.86 189.00 224.37 C 189.27 220.64 189.73 216.81 189.01 213.11 C 187.55 211.83 185.82 210.94 184.17 209.94 C 184.23 207.56 184.48 205.19 184.87 202.84 C 185.46 203.44 186.05 204.04 186.64 204.65 C 187.48 203.28 187.93 201.52 189.21 200.50 C 191.45 199.80 193.34 201.78 195.22 202.67 Z" fill="#2c61e7" opacity="1.00" stroke="#2c61e7" stroke-width="0.25"/>
<path d="M 227.83 215.85 C 230.99 212.03 235.23 209.42 239.12 206.45 C 241.50 209.30 243.37 212.52 245.56 215.51 C 246.58 217.14 248.17 219.00 247.03 221.00 C 242.85 229.70 234.41 235.27 229.10 243.17 C 227.98 244.47 226.78 245.71 225.54 246.91 C 224.53 246.77 223.52 246.63 222.51 246.49 C 222.29 246.00 221.85 245.04 221.63 244.56 C 220.95 244.61 220.27 244.67 219.60 244.74 C 219.57 243.76 219.54 242.79 219.50 241.82 C 221.75 238.85 224.00 235.78 225.23 232.23 C 225.36 231.84 225.62 231.06 225.75 230.67 C 228.46 227.99 230.91 224.80 231.88 221.06 C 231.59 218.75 229.33 217.40 227.83 215.85 Z" fill="#f44f88" opacity="1.00" stroke="#f44f88" stroke-width="0.25"/>
<path d="M 218.19 208.29 C 220.58 210.27 223.02 212.22 225.36 214.28 C 224.31 220.22 224.73 226.25 225.23 232.23 C 224.00 235.78 221.75 238.85 219.50 241.82 C 216.83 245.16 213.71 248.11 211.04 251.45 C 206.46 252.19 201.61 253.28 197.09 251.66 C 194.40 250.70 192.48 248.46 190.51 246.51 C 190.95 239.04 187.43 231.78 189.00 224.37 C 189.58 224.86 190.73 225.82 191.31 226.31 C 192.11 224.04 192.85 221.76 193.52 219.45 C 194.24 219.41 194.97 219.38 195.69 219.34 C 198.78 217.38 202.34 216.37 205.49 214.50 C 209.51 211.83 215.35 212.75 218.19 208.29 Z" fill="#2b4ade" opacity="1.00" stroke="#2b4ade" stroke-width="0.25"/>
<path d="M 176.38 219.30 C 179.44 216.63 181.58 213.09 183.76 209.70 L 184.17 209.94 C 185.82 210.94 187.55 211.83 189.01 213.11 C 189.73 216.81 189.27 220.64 189.00 224.37 C 187.43 231.78 190.95 239.04 190.51 246.51 C 190.61 248.37 190.75 250.23 190.94 252.09 C 189.49 245.86 189.63 239.24 187.27 233.24 L 188.43 233.06 C 188.49 230.94 188.22 228.83 187.97 226.73 C 185.94 228.74 184.00 230.93 181.37 232.18 C 176.98 230.95 172.40 231.62 167.92 231.35 C 163.99 231.21 160.12 230.52 156.23 230.05 C 157.18 229.53 158.13 229.01 159.08 228.49 C 164.94 225.63 170.98 223.02 176.38 219.30 Z" fill="#f15ea5" opacity="1.00" stroke="#f15ea5" stroke-width="0.25"/>
<path d="M 225.83 215.46 C 226.33 215.56 227.33 215.75 227.83 215.85 C 229.33 217.40 231.59 218.75 231.88 221.06 C 230.91 224.80 228.46 227.99 225.75 230.67 C 225.78 225.60 225.64 220.53 225.83 215.46 Z" fill="#fcfefd" opacity="1.00" stroke="#fcfefd" stroke-width="0.25"/>
<path d="M 181.37 232.18 C 184.00 230.93 185.94 228.74 187.97 226.73 C 188.22 228.83 188.49 230.94 188.43 233.06 L 187.27 233.24 C 185.30 232.89 183.33 232.56 181.37 232.18 Z" fill="#f9fcfb" opacity="1.00" stroke="#f9fcfb" stroke-width="0.25"/>
<path d="M 133.40 228.65 C 141.93 227.92 150.53 229.06 159.08 228.49 C 158.13 229.01 157.18 229.53 156.23 230.05 C 156.02 230.14 155.59 230.34 155.38 230.44 C 155.08 234.21 154.73 237.98 154.31 241.75 C 155.60 242.11 156.91 242.48 158.21 242.84 C 155.98 242.80 153.75 242.75 151.52 242.71 C 151.34 245.46 151.86 248.19 153.05 250.69 C 150.20 254.06 144.96 258.37 140.65 254.91 C 140.24 255.86 139.84 256.81 139.44 257.77 C 138.68 256.83 137.92 255.90 137.16 254.97 C 136.99 255.78 136.63 257.38 136.46 258.19 C 134.20 250.20 132.13 242.14 130.63 233.98 C 129.81 231.70 131.70 229.84 133.40 228.65 Z" fill="#f63e50" opacity="1.00" stroke="#f63e50" stroke-width="0.25"/>
<path d="M 155.38 230.44 C 155.59 230.34 156.02 230.14 156.23 230.05 C 160.12 230.52 163.99 231.21 167.92 231.35 C 172.40 231.62 176.98 230.95 181.37 232.18 C 183.33 232.56 185.30 232.89 187.27 233.24 C 189.63 239.24 189.49 245.86 190.94 252.09 C 191.41 256.01 191.95 259.92 192.68 263.80 C 192.65 264.44 192.61 265.72 192.59 266.35 C 188.82 267.11 185.12 268.42 181.25 268.58 C 177.18 268.26 173.18 267.33 169.12 266.95 L 167.47 266.57 C 160.33 265.47 153.13 263.70 145.86 264.46 C 143.45 264.65 140.64 265.02 138.66 263.30 C 137.44 261.88 136.66 260.04 136.46 258.19 C 136.63 257.38 136.99 255.78 137.16 254.97 C 137.92 255.90 138.68 256.83 139.44 257.77 C 139.84 256.81 140.24 255.86 140.65 254.91 C 144.96 258.37 150.20 254.06 153.05 250.69 C 154.35 252.41 157.04 253.81 158.75 251.78 C 161.28 249.16 159.79 245.51 158.21 242.84 C 156.91 242.48 155.60 242.11 154.31 241.75 C 154.73 237.98 155.08 234.21 155.38 230.44 Z" fill="#f22443" opacity="1.00" stroke="#f22443" stroke-width="0.25"/>
<path d="M 302.73 257.24 C 306.87 250.66 311.29 244.26 315.52 237.74 C 315.75 238.07 316.20 238.72 316.42 239.05 C 317.49 239.49 318.58 239.86 319.63 240.35 C 319.89 241.53 320.09 242.72 320.23 243.92 C 319.75 243.53 318.81 242.73 318.34 242.33 C 317.86 244.22 317.42 246.12 317.00 248.02 C 318.08 246.94 319.16 245.86 320.24 244.78 C 320.42 246.45 320.65 248.12 320.76 249.81 C 319.69 252.50 317.74 254.74 316.19 257.17 C 312.21 262.69 308.86 268.61 305.15 274.30 C 304.20 273.70 303.26 273.12 302.32 272.53 C 303.14 272.13 303.97 271.73 304.80 271.34 C 303.94 270.65 303.09 269.97 302.25 269.28 C 304.36 267.20 303.94 264.60 302.55 262.26 C 303.07 261.46 303.58 260.66 304.10 259.87 C 303.76 259.21 303.08 257.90 302.73 257.24 Z" fill="#cd23a8" opacity="1.00" stroke="#cd23a8" stroke-width="0.25"/>
<path d="M 219.50 241.82 C 219.54 242.79 219.57 243.76 219.60 244.74 C 220.27 244.67 220.95 244.61 221.63 244.56 C 221.85 245.04 222.29 246.00 222.51 246.49 C 223.52 246.63 224.53 246.77 225.54 246.91 C 224.23 248.16 222.93 249.42 221.63 250.68 C 219.48 252.90 217.03 254.89 214.02 255.80 C 213.03 254.34 212.04 252.90 211.04 251.45 C 213.71 248.11 216.83 245.16 219.50 241.82 Z" fill="#f8628e" opacity="1.00" stroke="#f8628e" stroke-width="0.25"/>
<path d="M 153.05 250.69 C 151.86 248.19 151.34 245.46 151.52 242.71 C 153.75 242.75 155.98 242.80 158.21 242.84 C 159.79 245.51 161.28 249.16 158.75 251.78 C 157.04 253.81 154.35 252.41 153.05 250.69 Z" fill="#f9b6c6" opacity="1.00" stroke="#f9b6c6" stroke-width="0.25"/>
<path d="M 225.54 246.91 C 226.78 245.71 227.98 244.47 229.10 243.17 C 230.12 246.24 232.09 249.50 230.87 252.81 C 229.77 256.55 230.09 260.46 230.10 264.31 C 229.38 261.62 229.00 258.77 227.65 256.32 C 226.38 255.12 224.65 254.62 223.12 253.86 C 222.61 252.80 222.12 251.74 221.63 250.68 C 222.93 249.42 224.23 248.16 225.54 246.91 Z" fill="#05126c" opacity="1.00" stroke="#05126c" stroke-width="0.25"/>
<path d="M 190.51 246.51 C 192.48 248.46 194.40 250.70 197.09 251.66 C 201.61 253.28 206.46 252.19 211.04 251.45 C 212.04 252.90 213.03 254.34 214.02 255.80 C 217.03 254.89 219.48 252.90 221.63 250.68 C 222.12 251.74 222.61 252.80 223.12 253.86 C 224.65 254.62 226.38 255.12 227.65 256.32 C 229.00 258.77 229.38 261.62 230.10 264.31 C 231.09 272.30 232.71 280.25 233.64 288.23 C 232.21 294.89 235.33 301.48 237.08 307.82 C 236.50 307.32 235.94 306.83 235.37 306.33 C 235.02 307.61 234.92 309.01 234.26 310.19 C 233.02 310.35 231.76 310.29 230.51 310.31 C 229.99 313.88 229.13 317.40 228.43 320.94 C 224.39 318.07 222.73 313.10 218.83 310.10 C 217.14 305.42 214.25 301.34 212.18 296.84 C 210.98 294.16 209.13 291.87 207.27 289.62 C 205.53 285.95 204.08 282.08 203.14 278.13 C 202.75 274.83 201.96 271.58 200.80 268.46 C 199.02 268.17 197.24 267.87 195.46 267.58 C 194.52 266.33 193.57 265.08 192.68 263.80 C 191.95 259.92 191.41 256.01 190.94 252.09 C 190.75 250.23 190.61 248.37 190.51 246.51 Z" fill="#010b49" opacity="1.00" stroke="#010b49" stroke-width="0.25"/>
<path d="M 324.64 272.90 C 329.61 265.34 334.09 257.31 340.10 250.54 C 339.57 253.78 337.26 256.22 336.06 259.18 C 336.44 260.28 337.23 261.18 337.86 262.17 C 337.19 262.81 336.52 263.47 335.86 264.12 C 337.26 265.85 338.84 267.61 341.23 267.79 C 338.34 271.82 335.71 276.02 333.09 280.23 C 331.98 280.00 330.88 279.77 329.79 279.54 C 328.66 278.17 327.38 276.95 325.98 275.87 C 325.53 274.87 325.08 273.88 324.64 272.90 Z" fill="#d7259d" opacity="1.00" stroke="#d7259d" stroke-width="0.25"/>
<path d="M 292.58 273.07 C 296.12 267.90 299.22 262.44 302.73 257.24 C 303.08 257.90 303.76 259.21 304.10 259.87 C 303.58 260.66 303.07 261.46 302.55 262.26 C 303.94 264.60 304.36 267.20 302.25 269.28 C 303.09 269.97 303.94 270.65 304.80 271.34 C 303.97 271.73 303.14 272.13 302.32 272.53 C 303.26 273.12 304.20 273.70 305.15 274.30 C 303.74 276.66 302.28 278.98 300.73 281.25 C 299.69 280.67 298.66 280.08 297.64 279.50 C 296.42 277.12 294.78 274.98 292.75 273.24 L 292.58 273.07 Z" fill="#c428b6" opacity="1.00" stroke="#c428b6" stroke-width="0.25"/>
<path d="M 192.68 263.80 C 193.57 265.08 194.52 266.33 195.46 267.58 C 197.24 267.87 199.02 268.17 200.80 268.46 C 201.96 271.58 202.75 274.83 203.14 278.13 C 202.19 275.31 201.48 272.42 200.60 269.58 C 190.05 270.32 179.39 269.45 169.12 266.95 C 173.18 267.33 177.18 268.26 181.25 268.58 C 185.12 268.42 188.82 267.11 192.59 266.35 C 192.61 265.72 192.65 264.44 192.68 263.80 Z" fill="#040721" opacity="1.00" stroke="#040721" stroke-width="0.25"/>
<path d="M 145.86 264.46 C 153.13 263.70 160.33 265.47 167.47 266.57 C 166.64 267.03 165.83 267.54 165.05 268.08 C 165.67 276.01 167.26 283.85 169.69 291.43 C 166.74 291.61 163.79 291.88 160.87 292.28 C 160.82 292.89 160.73 294.10 160.68 294.70 C 158.26 289.40 155.23 284.40 152.71 279.15 C 150.17 274.36 148.76 269.05 145.86 264.46 Z" fill="#030b41" opacity="1.00" stroke="#030b41" stroke-width="0.25"/>
<path d="M 310.00 296.59 C 314.83 288.66 319.71 280.76 324.64 272.90 C 325.08 273.88 325.53 274.87 325.98 275.87 C 327.38 276.95 328.66 278.17 329.79 279.54 C 330.88 279.77 331.98 280.00 333.09 280.23 C 327.60 289.18 321.74 297.90 316.61 307.07 C 316.22 304.68 315.06 302.58 313.63 300.68 C 313.61 299.87 313.59 299.06 313.58 298.26 C 312.39 297.70 311.19 297.14 310.00 296.59 Z" fill="#cc22a7" opacity="1.00" stroke="#cc22a7" stroke-width="0.25"/>
<path d="M 281.83 289.98 C 285.46 284.39 289.02 278.76 292.75 273.24 C 294.78 274.98 296.42 277.12 297.64 279.50 C 298.66 280.08 299.69 280.67 300.73 281.25 C 297.06 287.38 292.77 293.13 289.36 299.41 C 287.21 297.08 287.36 293.89 287.39 290.94 C 285.53 290.64 283.68 290.29 281.83 289.98 Z" fill="#ba24c1" opacity="1.00" stroke="#ba24c1" stroke-width="0.25"/>
<path d="M 237.08 307.82 C 235.33 301.48 232.21 294.89 233.64 288.23 C 234.38 290.11 234.78 292.09 235.23 294.06 C 238.24 307.35 243.09 320.23 249.78 332.11 C 252.09 336.14 254.74 339.97 256.99 344.04 C 254.19 344.63 252.01 346.57 249.85 348.30 C 241.84 341.31 234.45 333.56 228.15 324.98 C 219.82 314.11 211.97 302.57 207.27 289.62 C 209.13 291.87 210.98 294.16 212.18 296.84 C 214.25 301.34 217.14 305.42 218.83 310.10 C 222.73 313.10 224.39 318.07 228.43 320.94 C 229.13 317.40 229.99 313.88 230.51 310.31 C 231.76 310.29 233.02 310.35 234.26 310.19 C 234.92 309.01 235.02 307.61 235.37 306.33 C 235.94 306.83 236.50 307.32 237.08 307.82 Z" fill="#02093c" opacity="1.00" stroke="#02093c" stroke-width="0.25"/>
<path d="M 281.83 289.98 C 283.68 290.29 285.53 290.64 287.39 290.94 C 287.36 293.89 287.21 297.08 289.36 299.41 C 286.55 306.47 286.90 315.11 291.78 321.19 C 293.99 324.28 297.37 326.24 300.93 327.38 C 298.47 329.20 298.14 331.91 298.59 334.74 C 297.31 336.05 295.30 336.34 293.68 337.11 C 289.13 335.04 284.93 332.06 282.22 327.78 C 273.62 317.14 274.40 301.03 281.83 289.98 Z" fill="#a41bc5" opacity="1.00" stroke="#a41bc5" stroke-width="0.25"/>
<path d="M 160.87 292.28 C 163.79 291.88 166.74 291.61 169.69 291.43 C 170.16 292.73 170.64 294.03 171.13 295.33 C 168.42 296.75 165.68 298.99 162.43 298.46 C 161.98 297.67 161.08 296.08 160.63 295.29 L 160.68 294.70 C 160.73 294.10 160.82 292.89 160.87 292.28 Z" fill="#e64c7e" opacity="1.00" stroke="#e64c7e" stroke-width="0.25"/>
<path d="M 162.43 298.46 C 165.68 298.99 168.42 296.75 171.13 295.33 C 172.43 296.73 173.77 298.10 175.13 299.44 C 173.71 301.81 171.17 303.08 168.94 304.54 C 162.59 308.32 156.25 312.28 149.20 314.67 C 149.80 312.94 150.86 311.43 152.24 310.24 C 156.04 306.68 159.49 302.76 162.43 298.46 Z" fill="#051041" opacity="1.00" stroke="#051041" stroke-width="0.25"/>
<path d="M 303.55 304.42 C 305.22 301.45 307.98 299.29 310.00 296.59 C 311.19 297.14 312.39 297.70 313.58 298.26 C 313.59 299.06 313.61 299.87 313.63 300.68 C 315.06 302.58 316.22 304.68 316.61 307.07 C 314.68 310.55 310.55 314.71 306.27 312.62 C 302.94 311.43 302.98 307.28 303.55 304.42 Z" fill="#bd1db7" opacity="1.00" stroke="#bd1db7" stroke-width="0.25"/>
<path d="M 307.45 327.26 C 310.62 326.34 312.26 323.16 315.00 321.54 C 320.95 321.04 323.74 329.76 319.61 333.60 C 313.21 341.02 302.03 340.69 293.68 337.11 C 295.30 336.34 297.31 336.05 298.59 334.74 C 298.14 331.91 298.47 329.20 300.93 327.38 C 303.10 327.45 305.31 327.71 307.45 327.26 Z" fill="#b61cb3" opacity="1.00" stroke="#b61cb3" stroke-width="0.25"/>
<path d="M 266.32 323.51 C 271.49 321.51 276.30 327.05 274.96 331.96 C 273.90 336.65 266.90 337.90 264.10 334.09 C 261.62 330.96 262.14 324.91 266.32 323.51 Z" fill="#9022cc" opacity="1.00" stroke="#9022cc" stroke-width="0.25"/>
<path d="M 256.99 344.04 L 257.76 343.82 C 258.63 345.73 261.08 347.96 259.26 350.07 C 257.75 351.50 255.50 351.80 253.68 352.73 C 252.22 351.41 250.98 349.90 249.85 348.30 C 252.01 346.57 254.19 344.63 256.99 344.04 Z" fill="#df5f80" opacity="1.00" stroke="#df5f80" stroke-width="0.25"/>
<path d="M 240.42 365.45 C 242.54 361.77 245.65 357.65 250.32 357.52 C 250.66 364.05 249.52 370.56 249.83 377.07 C 249.81 379.80 252.02 381.40 254.10 382.68 C 251.66 384.36 249.56 386.71 249.36 389.81 L 249.17 390.64 C 246.02 388.65 242.71 386.49 241.11 382.96 C 238.64 377.56 237.89 370.97 240.42 365.45 Z" fill="#7620d3" opacity="1.00" stroke="#7620d3" stroke-width="0.25"/>
<path d="M 262.85 357.76 C 266.75 359.35 270.63 361.89 272.03 366.08 C 274.66 373.12 273.55 382.08 268.08 387.51 C 266.69 384.90 266.92 382.03 267.66 379.29 C 266.02 379.32 264.38 379.36 262.74 379.40 C 263.45 372.20 262.09 364.98 262.85 357.76 Z" fill="#a019bf" opacity="1.00" stroke="#a019bf" stroke-width="0.25"/>
<path d="M 262.74 379.40 C 264.38 379.36 266.02 379.32 267.66 379.29 C 266.92 382.03 266.69 384.90 268.08 387.51 C 263.07 392.10 255.77 393.44 249.43 391.04 L 249.36 389.81 C 249.56 386.71 251.66 384.36 254.10 382.68 C 257.39 382.88 261.02 382.74 262.74 379.40 Z" fill="#8a14c7" opacity="1.00" stroke="#8a14c7" stroke-width="0.25"/>
</svg>